<?xml version="1.0" encoding="utf-8"?>
<!-- Generator: Adobe Illustrator 24.1.1, SVG Export Plug-In . SVG Version: 6.00 Build 0)  -->
<svg version="1.1"
	 id="svg2" inkscape:version="0.92.2 (5c3e80d, 2017-08-06)" sodipodi:docname="python-logo-inkscape.svg" xmlns:cc="http://creativecommons.org/ns#" xmlns:dc="http://purl.org/dc/elements/1.1/" xmlns:inkscape="http://www.inkscape.org/namespaces/inkscape" xmlns:rdf="http://www.w3.org/1999/02/22-rdf-syntax-ns#" xmlns:sodipodi="http://sodipodi.sourceforge.net/DTD/sodipodi-0.dtd" xmlns:svg="http://www.w3.org/2000/svg"
	 xmlns="http://www.w3.org/2000/svg" xmlns:xlink="http://www.w3.org/1999/xlink" x="0px" y="0px" viewBox="0 0 900 180"
	 style="enable-background:new 0 0 900 180;" xml:space="preserve">
<style type="text/css">
	.st0{fill:#D9534F;}
	.st1{fill:#5BC0DE;}
	.st2{fill:#F0AD4E;}
	.st3{fill:#646464;}
	.st4{fill:#00A651;}
</style>
<sodipodi:namedview  bordercolor="#666666" borderopacity="1.0" gridtolerance="10.0" guidetolerance="10.0" height="40mm" id="base" inkscape:current-layer="svg2" inkscape:cx="444.15778" inkscape:cy="76.679995" inkscape:guide-bbox="true" inkscape:pagecheckerboard="false" inkscape:pageopacity="0.0" inkscape:pageshadow="2" inkscape:showpageshadow="false" inkscape:window-height="1378" inkscape:window-maximized="0" inkscape:window-width="1918" inkscape:window-x="1153" inkscape:window-y="2160" inkscape:zoom="1" objecttolerance="10.0" pagecolor="#ffffff" showborder="true" showgrid="false" showguides="true" units="px" width="210mm">
	</sodipodi:namedview>
<path id="path4554" inkscape:flatsided="true" inkscape:randomized="0" inkscape:rounded="0.2" inkscape:transform-center-x="-1.8115835" inkscape:transform-center-y="-5.327922" sodipodi:arg1="0.53344287" sodipodi:arg2="1.318841" sodipodi:cx="87.611967" sodipodi:cy="89.999997" sodipodi:r1="83.055626" sodipodi:r2="71.928276" sodipodi:sides="4" sodipodi:type="star" class="st0" d="
	M159.1,132.2c-11.9,20.2-93.5,41.2-113.7,29.3C25.2,149.6,4.2,68,16.1,47.8s93.5-41.2,113.7-29.3S171.1,112,159.1,132.2L159.1,132.2
	z"/>
<path id="path1948" inkscape:connector-curvature="0" sodipodi:nodetypes="scsccccsccczccssssss" class="st1" d="M87,33.8
	c-4.6,0-9,0.4-12.8,1.1c-11.3,2-13.4,6.2-13.4,13.9v10.2h26.8v3.4H60.7l-10.1,0c-7.8,0-14.6,4.7-16.8,13.6
	c-2.5,10.2-2.6,16.6,0,27.2c1.9,7.9,6.5,13.6,14.3,13.6c16.6-16.6,57.7-18,32.9-27.2s33.3-7.3,33.3-40.8c0-7.3-6.1-12.7-13.4-13.9
	C96.3,34.1,91.5,33.8,87,33.8z M72.5,42c2.8,0,5,2.3,5,5.1c0,2.8-2.3,5.1-5,5.1c-2.8,0-5-2.3-5-5.1C67.4,44.3,69.7,42,72.5,42z"/>
<path id="path1950" inkscape:connector-curvature="0" sodipodi:nodetypes="czcccsccccsccsccsssc" class="st2" d="M115,62.5
	c-15.1,23-45.7,19.1-18,27.2s-36.3,24.5-36.3,40.8c0,7.3,6.3,11.5,13.4,13.6c8.5,2.5,16.6,2.9,26.8,0c6.8-2,13.4-5.9,13.4-13.6
	v-10.2H87.5v-3.4h26.8h13.4c7.8,0,10.7-5.4,13.4-13.6c2.8-8.4,2.7-16.5,0-27.3c-1.9-7.8-5.6-13.6-13.4-13.6H115z M102.6,127.1
	c2.8,0,5,2.3,5,5.1c0,2.8-2.3,5.1-5,5.1c-2.8,0-5-2.3-5-5.1C97.6,129.4,99.8,127.1,102.6,127.1z"/>
<g>
	<path id="path46" class="st3" d="M590.7,92.2c0-14.6-4.2-22-12.5-22.4c-3.3-0.2-6.5,0.4-9.7,1.6c-2.5,0.9-4.2,1.8-5.1,2.7v34.8
		c5.3,3.3,10,4.9,14.1,4.6C586.4,112.8,590.7,105.8,590.7,92.2z M601,92.8c0,7.4-1.7,13.5-5.2,18.4c-3.9,5.5-9.3,8.4-16.2,8.5
		c-5.2,0.2-10.5-1.5-16.1-4.9v31.6l-8.9-3.2V73.2c1.5-1.8,3.3-3.3,5.6-4.6c5.3-3.1,11.7-4.7,19.3-4.8l0.1,0.1
		c6.9-0.1,12.3,2.8,16,8.5C599.2,77.7,601,84.5,601,92.8z"/>
	<path id="path48" class="st3" d="M655.4,113.5c0,9.9-1,16.8-3,20.6c-2,3.8-5.8,6.9-11.4,9.1c-4.6,1.8-9.5,2.8-14.8,2.9l-1.5-5.6
		c5.4-0.7,9.2-1.5,11.3-2.2c4.3-1.5,7.3-3.7,8.9-6.7c1.3-2.4,1.9-7.1,1.9-14v-2.3c-6.1,2.8-12.5,4.1-19.2,4.1
		c-4.4,0-8.3-1.4-11.6-4.1c-3.7-3-5.6-6.8-5.6-11.5V66.8l8.9-3.1v37.3c0,4,1.3,7.1,3.9,9.2s5.9,3.2,10,3.1c4.1-0.1,8.5-1.7,13.1-4.8
		V65.1h8.9V113.5z"/>
	<path id="path50" class="st3" d="M690.2,119.3c-1.1,0.1-2,0.1-2.9,0.1c-5,0-9-1.2-11.8-3.6c-2.8-2.4-4.2-5.7-4.2-10V70.7h-6.1v-5.6
		h6.1V50.2l8.9-3.2v18.1h10v5.6h-10v34.8c0,3.3,0.9,5.7,2.7,7.1c1.5,1.1,4,1.8,7.3,2V119.3z"/>
	<path id="path52" class="st3" d="M744.2,118.5h-8.9V84.1c0-3.5-0.8-6.5-2.4-9c-1.9-2.8-4.5-4.3-7.8-4.3c-4.1,0-9.2,2.2-15.3,6.5
		v41.2h-8.9V36.3l8.9-2.8V71c5.7-4.1,11.9-6.2,18.7-6.2c4.7,0,8.5,1.6,11.5,4.8c2.9,3.2,4.4,7.1,4.4,11.8V118.5L744.2,118.5z"/>
	<path id="path54" class="st3" d="M791.5,90.8c0-5.6-1.1-10.2-3.2-13.9c-2.5-4.5-6.4-6.8-11.7-7c-9.8,0.6-14.6,7.6-14.6,21
		c0,6.2,1,11.3,3.1,15.4c2.6,5.3,6.5,7.8,11.8,7.8C786.6,113.9,791.5,106.2,791.5,90.8z M801.3,90.9c0,8-2,14.6-6.1,19.9
		c-4.5,5.9-10.7,8.9-18.5,8.9c-7.8,0-13.9-3-18.3-8.9c-4-5.3-6-11.9-6-19.9c0-7.5,2.2-13.8,6.5-18.9c4.6-5.4,10.5-8.2,17.9-8.2
		c7.4,0,13.4,2.7,18.1,8.2C799.1,77.1,801.3,83.4,801.3,90.9z"/>
	<path id="path56" class="st3" d="M852.3,118.5h-8.9V82.2c0-4-1.2-7.1-3.6-9.3c-2.4-2.2-5.6-3.3-9.6-3.2c-4.2,0.1-8.3,1.5-12.1,4.1
		v44.8h-8.9V72.7c5.1-3.7,9.8-6.2,14.2-7.3c4.1-1.1,7.7-1.6,10.7-1.6c2.1,0,4.1,0.2,6,0.6c3.5,0.8,6.3,2.3,8.5,4.5
		c2.4,2.4,3.7,5.4,3.7,8.8V118.5z"/>
</g>
<path class="st4" d="M219.5,108.6h-15.2l-3,9.9h-12.5l16.7-51.2h6.4v0l0,0h6.4l16.7,51.2h-12.5L219.5,108.6z M207,99.4h9.7L212,83.6
	h-0.2L207,99.4z"/>
<path class="st4" d="M268.5,101v17.5h-11.9V67.3h19.5c6.1,0,10.9,1.5,14.4,4.6c3.6,3.1,5.3,7.2,5.3,12.2c0,5-1.8,9.1-5.3,12.2
	c-3.6,3.1-8.4,4.6-14.4,4.6H268.5z M268.5,91.9h7.7c2.6,0,4.5-0.7,5.9-2.1c1.4-1.4,2-3.2,2-5.5c0-2.3-0.7-4.1-2-5.6
	c-1.3-1.5-3.3-2.2-5.9-2.2h-7.7V91.9z"/>
<path class="st4" d="M323.1,108.6h-15.2l-3,9.9h-12.5l16.7-51.2h6.4v0l0,0h6.4l16.7,51.2h-12.5L323.1,108.6z M310.6,99.4h9.7
	l-4.8-15.9h-0.2L310.6,99.4z"/>
<path class="st4" d="M374.7,76.5h-13.5v42h-11.9v-42H336v-9.1h38.7V76.5z"/>
<path class="st4" d="M422.2,118.5h-11.8V97.9h-18.9v20.6h-11.9V67.3h11.9v21.4h18.9V67.3h11.8V118.5z"/>
<path class="st4" d="M483.9,76.5h-13.5v42h-11.9v-42h-13.3v-9.1h38.7V76.5z"/>
<path class="st4" d="M530.3,97.5c0,6.3-2,11.5-6,15.6s-9.2,6.1-15.7,6.1c-6.5,0-11.8-2-15.8-6.1s-6-9.3-6-15.6v-9.2
	c0-6.3,2-11.5,6-15.6c4-4.1,9.3-6.2,15.7-6.2c6.4,0,11.6,2.1,15.7,6.2c4,4.1,6,9.3,6,15.6V97.5z M518.4,88.3c0-3.7-0.9-6.7-2.6-9
	c-1.7-2.3-4.2-3.5-7.3-3.5c-3.2,0-5.7,1.2-7.4,3.5c-1.7,2.3-2.5,5.3-2.5,9v9.3c0,3.7,0.9,6.7,2.6,9.1s4.2,3.5,7.4,3.5
	c3.1,0,5.5-1.2,7.2-3.5s2.6-5.4,2.6-9.1V88.3z"/>
<path d="M884.4,157.7h-2v-120h2V157.7z">
          <animate
            attributeType="XML"
            attributeName="fill"
            values="darkgray;white;darkgray"
            dur="2s"
            repeatCount="indefinite"/>
  </path>
</svg>
